<svg width="24" height="23" viewBox="0 0 24 23" fill="none" xmlns="http://www.w3.org/2000/svg">
<path d="M22.9133 20.265C22.1633 19.5964 21.5067 18.8299 20.9611 17.9861C20.3655 16.8214 20.0085 15.5495 19.9111 14.245V10.4028C19.9163 8.35381 19.173 6.37348 17.821 4.83387C16.6635 3.51574 15.128 2.59833 13.4348 2.1987C12.9449 2.0831 12.5689 1.66459 12.5689 1.1613V1.03833C12.5689 0.76295 12.4595 0.498846 12.2648 0.304121C12.07 0.109396 11.8059 0 11.5306 0C11.2552 0 10.9911 0.109396 10.7963 0.304121C10.6016 0.498846 10.4922 0.76295 10.4922 1.03833V1.18593C10.4922 1.68531 10.1218 2.1018 9.6368 2.22097C7.9591 2.63324 6.44146 3.55466 5.29863 4.86897C3.9644 6.40341 3.23146 8.36939 3.23556 10.4028V14.245C3.13814 15.5495 2.78116 16.8214 2.18556 17.9861C1.64957 18.8279 1.00348 19.5944 0.264445 20.265C0.18148 20.3379 0.114988 20.4276 0.0693913 20.5282C0.0237949 20.6288 0.000139842 20.7379 0 20.8483V21.9061C0 22.1124 0.0819442 22.3102 0.227806 22.4561C0.373667 22.6019 0.571498 22.6839 0.777778 22.6839H22.4C22.6063 22.6839 22.8041 22.6019 22.95 22.4561C23.0958 22.3102 23.1778 22.1124 23.1778 21.9061V20.8483C23.1776 20.7379 23.154 20.6288 23.1084 20.5282C23.0628 20.4276 22.9963 20.3379 22.9133 20.265ZM4.09224 21.1283C3.19298 21.1283 2.70527 19.9848 3.21742 19.2457C3.31996 19.0977 3.41937 18.9474 3.51556 18.795C4.26581 17.3884 4.70356 15.8364 4.79889 14.245V10.4028C4.76804 9.49125 4.92094 8.58284 5.24848 7.73163C5.57602 6.88042 6.0715 6.10383 6.70541 5.4481C7.33933 4.79237 8.09872 4.27091 8.93836 3.91477C9.778 3.55863 10.6807 3.37509 11.5928 3.37509C12.5048 3.37509 13.4076 3.55863 14.2472 3.91477C15.0868 4.27091 15.8462 4.79237 16.4801 5.4481C17.1141 6.10383 17.6095 6.88042 17.9371 7.73163C18.2646 8.58284 18.4175 9.49125 18.3867 10.4028V14.245C18.482 15.8364 18.9197 17.3884 19.67 18.795C19.7662 18.9474 19.8656 19.0977 19.9681 19.2457C20.4803 19.9848 19.9926 21.1283 19.0933 21.1283H4.09224Z" fill="#3A3939"/>
</svg>
