<svg width="16" height="16" viewBox="0 0 16 16" fill="none" xmlns="http://www.w3.org/2000/svg">
<path d="M10.9846 8.352C12.352 8.352 13.4663 7.134 13.4663 5.652C13.4663 4.18686 12.3577 3.02629 10.9846 3.02629C9.62286 3.02629 8.50257 4.204 8.50257 5.66343C8.50829 7.13971 9.62286 8.352 10.9846 8.352ZM4.36629 8.47828C5.54971 8.47828 6.52057 7.41543 6.52057 6.11143C6.52057 4.836 5.56114 3.80771 4.36629 3.80771C3.18286 3.80771 2.20629 4.85343 2.212 6.12286C2.21771 7.42143 3.18286 8.47828 4.36629 8.47828ZM10.9846 7.48457C10.1457 7.48457 9.42743 6.68029 9.42743 5.66343C9.42743 4.66343 10.1343 3.894 10.9846 3.894C11.8406 3.894 12.5414 4.65229 12.5414 5.65171C12.5414 6.66886 11.8349 7.48457 10.9846 7.48457ZM4.36629 7.62228C3.66543 7.62228 3.068 6.95028 3.068 6.12286C3.068 5.31286 3.65943 4.66371 4.36629 4.66371C5.09 4.66371 5.67029 5.30143 5.67029 6.11143C5.67029 6.95028 5.07286 7.62228 4.36629 7.62228ZM1.172 13.7466H5.682C5.406 13.5914 5.19343 13.2466 5.23371 12.8963H1.02857C0.913714 12.8963 0.856286 12.8506 0.856286 12.7411C0.856286 11.3166 2.482 9.98371 4.36086 9.98371C5.08457 9.98371 5.73371 10.156 6.29114 10.4834C6.47593 10.2492 6.69474 10.044 6.94029 9.87457C6.19914 9.386 5.30886 9.13343 4.36086 9.13343C1.95343 9.13343 0 10.8797 0 12.7929C0 13.4306 0.390572 13.7466 1.172 13.7466ZM7.37657 13.7466H14.5926C15.546 13.7466 16 13.4594 16 12.8274C16 11.3223 14.0983 9.14457 10.9846 9.14457C7.86486 9.14457 5.96343 11.3223 5.96343 12.8274C5.96343 13.4594 6.41714 13.7466 7.37657 13.7466ZM7.10086 12.8791C6.95143 12.8791 6.88829 12.8391 6.88829 12.7183C6.88829 11.776 8.34743 10.0126 10.9846 10.0126C13.616 10.0126 15.0749 11.776 15.0749 12.7183C15.0749 12.8389 15.0177 12.8791 14.868 12.8791H7.10086Z" fill="#F24E1E"/>
</svg>
