<svg width="16" height="15" viewBox="0 0 16 15" fill="none" xmlns="http://www.w3.org/2000/svg">
<path d="M14.5147 14.775C14.9093 15.1583 15.5184 14.5667 15.1238 14.1917L11.9069 11.0583C13.0353 9.84543 13.6591 8.2682 13.6569 6.63333C13.6569 2.975 10.5944 0 6.82843 0C3.0625 0 0 2.975 0 6.63333C0 10.2917 3.0625 13.2667 6.82843 13.2667C8.52696 13.2667 10.0968 12.6583 11.2978 11.65L14.5147 14.775ZM0.856985 6.63333C0.856985 3.43333 3.54203 0.833333 6.82757 0.833333C10.1217 0.833333 12.7982 3.43333 12.7982 6.63333C12.7982 9.83333 10.1217 12.4333 6.82757 12.4333C3.54203 12.4333 0.856985 9.83333 0.856985 6.63333Z" fill="black" fill-opacity="0.5"/>
</svg>
