<svg width="414" height="436" viewBox="0 0 414 436" fill="none" xmlns="http://www.w3.org/2000/svg">
<path d="M254.677 178.17C254.104 178.387 253.536 178.61 252.957 178.822C252.324 179.056 251.685 179.29 251.051 179.523C249.15 180.229 247.256 180.947 245.383 181.702H245.378C242.478 183.001 239.573 184.316 236.685 185.68C228.832 189.391 221.127 193.467 214.121 198.564C212.886 199.455 211.679 200.385 210.495 201.347C215 206.9 220.739 211.28 225.96 216.171C227.276 215.236 228.608 214.323 229.957 213.432C260.477 193.142 297.675 183.29 334.274 184.338C347.854 184.555 361.244 187.729 373.733 193C369.096 212.666 354.112 227.908 337.156 238.005C311.578 253.194 282.538 261.111 253.421 266.566C250.588 267.099 247.754 267.604 244.925 268.093C244.925 268.153 244.936 268.257 244.941 268.333C244.957 268.62 244.979 268.93 245.001 269.229C245.006 269.332 245.017 269.462 245.022 269.539V269.544C247.583 271.179 250.204 272.712 252.852 274.195V274.2C260.476 278.487 268.317 282.432 275.46 287.54C295.539 300.707 315.083 318.78 319.446 343.424C288.898 345.227 261.562 326.181 244.279 302.38C243.683 301.56 243.099 300.739 242.531 299.907C242.7 301.304 242.935 302.684 243.219 304.054C246.009 317.367 254.042 329.273 263.849 338.587C284.164 356.883 312.93 363.089 339.667 361.697C339.809 340.826 332.994 319.437 318.408 304.113C301.431 285.616 277.474 275.058 253.212 269.781C252.738 269.678 252.268 269.574 251.792 269.477C252.273 269.439 252.759 269.401 253.24 269.374C267.067 268.369 280.991 268.347 294.665 265.951C319.189 261.804 343.254 252.866 363.093 237.683C380.076 224.902 394.628 208.247 403.972 189.103C405.829 185.305 407.483 181.403 408.903 177.414C409.274 176.377 409.629 175.333 409.968 174.285C409.324 174.1 408.679 173.915 408.03 173.741C405.403 173.008 402.766 172.317 400.117 171.665C355.919 160.83 308.722 161.428 265.166 174.686V174.691C261.911 175.68 258.673 176.74 255.462 177.876H255.457C255.195 177.969 254.939 178.072 254.676 178.169L254.677 178.17Z" fill="#8CC63F"/>
<path d="M231.277 331.925C226.415 320.069 214.364 313.741 204.823 306.074C196.632 300.444 189.029 292.573 187.905 282.264C186.297 264.86 193.682 247.494 205.239 234.688C200.595 229.81 195.855 224.954 190.179 221.269C187.438 223.636 185.024 226.055 182.908 228.505C172.248 240.827 169.007 253.911 168.67 264.576C168.623 266.016 168.631 267.413 168.679 268.762C169.051 278.887 171.788 286.071 172.147 286.959C172.151 286.976 172.156 286.985 172.16 286.998V287.002C172.17 287.024 172.178 287.041 172.178 287.05C174.736 295.43 179.362 303.171 186.117 308.849C196.554 317.647 209.344 324.13 217.433 335.431C221.338 343.363 213.568 350.26 208.907 355.773C211.658 358.366 214.377 361.003 217.149 363.622C226.078 355.846 234.246 344.329 231.277 331.923V331.925Z" fill="#8CC63F"/>
<path d="M202.132 270.746C202.67 281.276 202.91 291.822 203.288 302.367C205.756 303.121 209.264 305.859 210.635 302.03C211.617 291.604 211.294 281.099 212.057 270.671C216.692 267.12 219.902 260.597 216.293 255.186C212.211 247.657 199.839 248.708 197.033 256.773C194.605 262.185 198.184 267.318 202.132 270.746Z" fill="#006837"/>
<path d="M228.709 385.471C224.582 367.173 204.658 359.519 196.594 343.701C193.169 336.405 200.695 331.052 204.942 326.296C201.094 323.479 197.232 320.707 193.308 318.028C188.588 323.241 182.925 328.672 182.407 336.108C182.173 347.625 189.898 357.238 198.024 364.574C205.042 371.355 214.144 376.786 217.892 386.225C221.974 396.929 215.519 408.189 208.406 415.976C207.788 402.375 209.304 388.739 208.227 375.159C207.608 375.635 206.352 376.587 205.734 377.063C205.076 389.949 206.058 402.911 205.874 415.817V415.819C205.895 416.137 205.914 416.752 205.934 417.05C206.656 423.314 204.858 430.074 207.534 436.001C208.127 429.775 207.987 423.512 208.127 417.266C221.396 413.362 232.452 399.642 228.708 385.471H228.709Z" fill="#006837"/>
<path d="M209.86 330.297C209.182 329.548 207.85 328.02 207.173 327.266L204.84 328.02C203.249 335.153 204.541 342.648 204.7 349.925C204.7 352.583 206.155 354.086 209.087 354.443C209.74 346.413 210.238 338.348 209.86 330.297Z" fill="#006837"/>
<path d="M205.875 415.819C200.019 409.039 194.222 400.835 195.04 391.415C195.538 384.203 200.996 378.826 205.382 373.593C202.591 371.277 199.765 369.035 196.974 366.753C190.559 373.434 184.742 381.763 185.16 391.435C184.921 403.548 194.74 413.696 205.935 417.049C205.915 416.751 205.896 416.136 205.875 415.819Z" fill="#8CC63F"/>
<path d="M72.6494 370.279C70.421 368.263 68.2372 366.198 66.1021 364.078C29.6789 328.029 7.09878 278.139 7.09878 223.104C7.09878 216.007 7.47508 208.991 8.2074 202.085C6.12709 198.635 4.18878 195.103 2.41377 191.5C0.808146 201.885 -0.000244141 212.431 -0.000244141 223.104C-0.000244141 250.91 5.47186 277.889 16.267 303.283C26.6918 327.811 41.6161 349.841 60.63 368.757C79.6388 387.677 101.777 402.529 126.426 412.903C149.143 422.467 173.126 427.829 197.836 428.889C197.776 427.102 197.825 425.374 197.875 423.716C197.886 423.352 197.897 422.989 197.902 422.629C197.907 422.352 197.918 422.086 197.918 421.82C197.334 421.798 196.75 421.771 196.166 421.733C148.751 419.207 105.671 400.155 72.6494 370.279Z" fill="#8CC63F"/>
<path d="M411.662 191.967C409.914 195.596 407.976 199.173 405.857 202.683V202.688C406.545 209.399 406.9 216.213 406.9 223.104C406.9 278.166 384.297 328.078 347.842 364.132C345.915 366.045 343.943 367.914 341.933 369.745C308.972 399.806 265.877 419.031 218.412 421.699C218.238 421.71 218.068 421.721 217.894 421.726C217.342 421.764 216.79 421.792 216.239 421.813C216.223 423.905 216.196 427.09 216.141 428.888C240.856 427.835 264.845 422.471 287.573 412.902C312.222 402.528 334.36 387.676 353.369 368.756C372.382 349.84 387.307 327.81 397.732 303.282C408.528 277.889 413.999 250.909 413.999 223.103C413.999 212.594 413.218 202.198 411.662 191.966V191.967Z" fill="#006837"/>
<path d="M397.464 162.667C400.167 163.276 402.865 163.933 405.551 164.629C403.361 157.277 400.756 150.039 397.731 142.921C387.306 118.392 372.381 96.3675 353.367 77.4467C334.359 58.5309 312.221 43.6796 287.571 33.3058C270.294 26.0295 252.279 21.1878 233.772 18.8189C235.722 21.4431 237.6 24.1057 239.413 26.8017C314.033 38.958 374.894 92.3797 397.463 162.668L397.464 162.667Z" fill="#006837"/>
<path d="M16.491 162.792C38.9677 92.6441 99.5654 39.2719 173.934 26.9036C175.753 24.1976 177.643 21.5289 179.597 18.8996C161.309 21.2958 143.513 26.1103 126.426 33.3048C101.777 43.6786 79.6387 58.5299 60.6299 77.4457C41.616 96.3665 26.6917 118.391 16.2668 142.92C13.2199 150.093 10.5929 157.39 8.39795 164.803C11.0848 164.091 13.7818 163.417 16.491 162.797V162.792Z" fill="#8CC63F"/>
<path d="M10.1133 188.63V188.635C22.8913 214.169 43.8009 235.601 69.078 249.067C93.5367 262.222 121.43 268.031 149.083 268.645C152.464 268.57 156.045 269.113 159.442 268.743C152.529 271.069 145.922 273.422 139.817 275.829C134.274 278.003 129.151 280.226 124.57 282.502C124.521 282.524 124.477 282.545 124.433 282.567C124.394 282.583 124.362 282.599 124.33 282.616V282.621C110.961 289.516 98.8657 298.798 89.9592 310.97C78.9937 325.636 74.3584 344.074 74.2976 362.136C96.3919 362.273 119.376 359.061 138.505 347.312C154.451 337.765 166.267 321.941 171.155 304.106C171.652 302.296 172.078 300.466 172.427 298.617C171.63 299.819 170.805 301.009 169.953 302.182C152.686 326.125 125.41 344.719 94.9009 343.736C96.4842 331.13 102.96 319.685 111.403 310.355C118.317 302.677 126.197 296.101 134.606 290.227C135.889 289.331 137.19 288.444 138.494 287.58C143.834 283.668 153.751 276.484 160.653 271.947C164.083 269.697 166.763 268.094 167.78 267.871L166.24 267.285C165.491 267.002 164.722 266.807 163.93 266.692C162.773 266.524 161.61 266.35 160.452 266.166C133.978 262.019 107.904 254.205 84.0845 241.902C64.5573 231.572 45.7717 215.58 40.8077 193.154C62.3289 182.965 87.0442 182.965 110.219 185.921C136.906 189.758 163.532 198.903 185.757 214.297C193.855 219.91 201.364 226.356 208.086 233.669C209.642 235.299 211.127 237.016 212.53 238.805C213.895 240.538 215.179 242.336 216.374 244.196C220.557 250.684 223.686 257.878 225.33 265.361V265.366C226.58 271.017 226.979 276.832 226.356 282.641C225.739 288.493 222.922 293.439 219.175 297.709C219.175 297.712 219.173 297.716 219.17 297.72C217.575 299.535 215.828 301.22 213.999 302.806C212.497 304.105 210.952 305.339 209.406 306.512C211.11 307.707 212.814 308.898 214.517 310.094C216.718 311.632 218.918 313.175 221.114 314.712C222.512 313.614 223.916 312.512 225.286 311.37C228.672 308.583 231.904 305.599 234.564 302.111C234.831 301.752 235.099 301.388 235.361 301.019C235.519 300.802 235.672 300.584 235.825 300.367C240.363 293.884 242.782 286.288 244.038 278.517C244.519 275.533 244.83 272.523 245.021 269.54V269.535C245.016 269.459 245.005 269.328 245 269.225C244.977 268.926 244.956 268.616 244.94 268.329C244.935 268.253 244.924 268.149 244.924 268.089V268.084C244.848 265.351 244.607 262.634 244.202 259.939C243.52 255.358 242.379 250.853 240.828 246.49C238.354 239.567 234.854 233.002 230.496 227.058C229.841 226.156 229.17 225.271 228.476 224.396C220.667 214.391 211.16 205.936 200.691 198.785C190.54 191.851 179.493 186.14 168.206 181.44C164.7 152.879 165.633 123.551 172.803 95.6045C178.745 73.6566 188.083 50.9427 206.769 36.7647C220.077 46.7197 228.563 61.5114 234.581 76.6503C246.381 107.097 248.976 140.271 246.273 172.604C246.021 175.647 245.721 178.679 245.377 181.7H245.382C247.255 180.934 249.15 180.222 251.05 179.521C251.684 179.288 252.322 179.054 252.956 178.82C253.535 178.608 254.103 178.385 254.676 178.168C254.938 178.071 255.194 177.968 255.457 177.875H255.462C256.598 174.69 257.63 171.474 258.548 168.224C259.968 163.224 261.125 158.148 262.021 153.035C263.489 144.596 264.238 136.037 264.238 127.474C264.238 118.307 263.381 109.14 261.633 100.119C256.424 73.0854 244.645 47.5938 228.437 25.32C226.559 22.7331 224.614 20.1906 222.621 17.6965C217.669 11.5013 212.366 5.58964 206.769 -0.00202942C201.139 5.59469 195.815 11.5184 190.851 17.7288C188.847 20.234 186.897 22.7825 185.019 25.3795H185.014C170.848 44.8716 160.108 66.8407 154.062 90.1309C146.526 118.795 147.941 149.546 157.847 177.455C111.786 161.587 61.0611 160.007 13.8367 171.815V171.82C11.1884 172.477 8.55024 173.183 5.92424 173.933C5.2903 174.107 4.65739 174.292 4.02954 174.476C4.37947 175.438 4.73954 176.394 5.11077 177.351C6.60178 181.187 8.27232 184.948 10.1133 188.626V188.63Z" fill="#006837"/>
</svg>
